HIERARCHY
ROOT root
{
	OFFSET	0	13.1	24.9
	CHANNELS 6  Xposition Yposition Zposition Xrotation Yrotation Zrotation
	JOINT spine_1
	{
		OFFSET	0	9.99999	0
		CHANNELS 3  Xrotation Yrotation Zrotation
		JOINT spine_2
		{
			OFFSET	0	112	-10
			CHANNELS 3  Xrotation Yrotation Zrotation
			JOINT spine_3
			{
				OFFSET	0	206.5	19.3
				CHANNELS 3  Xrotation Yrotation Zrotation
				JOINT spine_4
				{
					OFFSET	0	110.4	14.6
					CHANNELS 3  Xrotation Yrotation Zrotation
					JOINT neck_1
					{
						OFFSET	0	71.8	-50.3
						CHANNELS 3  Xrotation Yrotation Zrotation
						JOINT neck_2
						{
							OFFSET	0	86.2	-25.8
							CHANNELS 3  Xrotation Yrotation Zrotation
							JOINT head_ee
							{
								OFFSET	0	179.8	-8.7
								CHANNELS 3  Xrotation Yrotation Zrotation
								End Site
								{
									OFFSET	1	0	0
								}
							}
						}
					}
					JOINT left_clavicle
					{
						OFFSET	-43.2	22.4	-70.8
						CHANNELS 3  Xrotation Yrotation Zrotation
						JOINT left_shoulder
						{
							OFFSET	-93.9	-5.79999	48.7
							CHANNELS 3  Xrotation Yrotation Zrotation
							JOINT left_elbow
							{
								OFFSET	-291.4	-30.8	15.2
								CHANNELS 3  Xrotation Yrotation Zrotation
								JOINT left_lowarm_twist
								{
									OFFSET	-110.7	-3.89999	13.6
									CHANNELS 3  Xrotation Yrotation Zrotation
									JOINT left_hand
									{
										OFFSET	-110.7	-3.89999	13.6
										CHANNELS 3  Xrotation Yrotation Zrotation
										JOINT left_ee
										{
											OFFSET	-80.8	-5.10001	12.1
											CHANNELS 3  Xrotation Yrotation Zrotation
											End Site
											{
												OFFSET	1	0	0
											}
										}
									}
								}
							}
						}
					}
					JOINT right_clavicle
					{
						OFFSET	43.2	22.4	-70.8
						CHANNELS 3  Xrotation Yrotation Zrotation
						JOINT right_shoulder
						{
							OFFSET	93.9	-5.79999	48.7
							CHANNELS 3  Xrotation Yrotation Zrotation
							JOINT right_elbow
							{
								OFFSET	291.4	-30.8	15.2
								CHANNELS 3  Xrotation Yrotation Zrotation
								JOINT right_lowarm_twist
								{
									OFFSET	110.7	-3.89999	13.6
									CHANNELS 3  Xrotation Yrotation Zrotation
									JOINT right_hand
									{
										OFFSET	110.7	-3.89999	13.6
										CHANNELS 3  Xrotation Yrotation Zrotation
										JOINT right_ee
										{
											OFFSET	80.8	-5.10001	12.1
											CHANNELS 3  Xrotation Yrotation Zrotation
											End Site
											{
												OFFSET	1	0	0
											}
										}
									}
								}
							}
						}
					}
				}
			}
		}
	}
	JOINT left_hip
	{
		OFFSET	-82.8	-127.5	0.300001
		CHANNELS 3  Xrotation Yrotation Zrotation
		JOINT left_knee
		{
			OFFSET	-28.2	-396.7	2.2
			CHANNELS 3  Xrotation Yrotation Zrotation
			JOINT left_ankle
			{
				OFFSET	-11.7	-411.3	35.4
				CHANNELS 3  Xrotation Yrotation Zrotation
				JOINT left_toes
				{
					OFFSET	0	-60	-88.6
					CHANNELS 3  Xrotation Yrotation Zrotation
					JOINT left_foot_ee
					{
						OFFSET	-22.5	-16.5	-42.2
						CHANNELS 3  Xrotation Yrotation Zrotation
						End Site
						{
							OFFSET	1	0	0
						}
					}
				}
			}
		}
	}
	JOINT right_hip
	{
		OFFSET	82.8	-127.5	0.300001
		CHANNELS 3  Xrotation Yrotation Zrotation
		JOINT right_knee
		{
			OFFSET	28.2	-396.7	2.2
			CHANNELS 3  Xrotation Yrotation Zrotation
			JOINT right_ankle
			{
				OFFSET	11.7	-411.3	35.4
				CHANNELS 3  Xrotation Yrotation Zrotation
				JOINT right_toes
				{
					OFFSET	0	-60	-88.6
					CHANNELS 3  Xrotation Yrotation Zrotation
					JOINT right_foot_ee
					{
						OFFSET	22.5	-16.5	-42.2
						CHANNELS 3  Xrotation Yrotation Zrotation
						End Site
						{
							OFFSET	1	0	0
						}
					}
				}
			}
		}
	}
}
MOTION
Frames: 15
Frame Time: 0.02
642.979 689.425 -2082.51 177.981 82.613 -173.287 -1.43459 -0.414047 -2.41305 -1.43138 -0.259706 -2.43449 -1.41732 0.318019 -2.42757 -1.42554 -0.0692415 -2.44732 13.8336 -7.55485 12.4942 16.0594 -23.4992 16.7094 -0.0 0.0 -0.0 8.02499 -11.519 15.5139 -0.351698 -19.5402 71.7317 0.908608 -24.2321 0.195059 -8.07571 -0.353533 0.969146 -1.85046 -0.493962 -12.6863 -0.0 0.0 -0.0 7.46209 17.5625 -13.9685 5.75728 -32.5806 -52.6037 6.159 71.8206 -4.4621 33.6128 0.0593704 4.23245 5.80621 -32.4833 -49.6371 0.0 0.0 0.0 28.0746 -45.6962 7.03094 -23.9495 0.227882 3.6415 4.04742 8.48037 -0.586132 2.24316 -0.0 -0.0 -0.0 0.0 -0.0 -8.56621 -22.646 -10.0389 6.13942 0.301048 0.893286 41.4533 -16.1154 5.07947 -17.2347 0.0 0.0 0.0 0.0 0.0 
631.315 690.737 -2078.31 178.334 82.254 -173.608 -1.47098 -0.59769 -2.63138 -1.46723 -0.429098 -2.66405 -1.44339 0.208231 -2.69032 -1.45343 -0.21911 -2.68946 13.993 -4.1022 14.7702 16.0815 -20.2325 19.5572 -0.0 0.0 -0.0 8.3144 -12.8597 16.0848 0.359703 -19.8671 71.7625 0.920847 -24.5202 0.20011 -7.10048 -0.303619 0.854847 -1.45474 0.191205 -9.6756 -0.0 0.0 -0.0 7.42885 18.91 -13.7994 3.44772 -35.4858 -53.1178 7.18409 74.2662 -5.44285 34.4444 0.0922595 4.33352 5.99672 -32.61 -51.3819 0.0 0.0 0.0 24.7746 -44.1707 5.49618 -19.4411 0.30187 2.95383 2.66503 5.10435 -0.388 0.929297 -0.0 -0.0 -0.0 0.0 -0.0 -9.09022 -24.0664 -10.0951 5.78736 0.281205 0.842956 41.2795 -16.7084 5.07496 -15.8914 0.0 0.0 0.0 0.0 0.0 
621.107 691.659 -2074.89 170.141 82.4806 -165.735 -1.92123 -0.566325 -2.65286 -1.91741 -0.396431 -2.68349 -1.89446 0.265864 -2.69954 -1.90459 -0.163654 -2.70766 14.3921 -1.89298 16.1423 16.4146 -18.1115 21.3756 -0.0 0.0 -0.0 8.37175 -14.5359 16.1321 1.43498 -19.4914 71.9809 0.903373 -24.1084 0.192915 -7.63721 -0.330848 0.917857 -1.30159 -1.43933 -9.37142 -0.0 0.0 -0.0 7.61342 18.0383 -14.2657 3.7995 -35.3832 -53.1116 6.63875 73.0514 -4.91951 36.3817 0.174561 4.5671 6.26233 -31.002 -54.2809 0.0 0.0 0.0 22.5616 -43.0028 5.3448 -18.1826 0.312842 2.76104 2.44486 3.94777 -0.356632 0.394256 -0.0 -0.0 -0.0 0.0 -0.0 -10.4463 -23.8152 -9.30243 5.62525 0.272172 0.81974 41.3274 -16.8765 5.08231 -14.1789 0.0 0.0 0.0 0.0 0.0 
609.784 692.571 -2072.83 164.922 82.7579 -160.803 -2.22617 -0.623306 -2.57738 -2.22259 -0.458096 -2.61178 -2.19713 0.202558 -2.64388 -2.20682 -0.217386 -2.64271 15.8098 0.633554 17.885 17.872 -15.983 24.0314 -0.0 0.0 -0.0 8.22084 -14.3357 15.8135 4.60693 -19.8122 73.5468 0.857451 -23.0135 0.174558 -5.47152 -0.224617 0.662115 -1.45422 2.97584 -8.40444 -0.0 0.0 -0.0 8.36805 15.4628 -16.0756 5.19496 -34.3493 -51.7525 6.03667 71.4784 -4.34599 35.3388 0.129273 4.4417 6.69502 -32.0824 -58.9353 0.0 0.0 0.0 22.5652 -45.5347 6.53278 -20.4743 0.289698 3.1119 6.13931 6.41731 -0.884038 2.95433 -0.0 -0.0 -0.0 0.0 -0.0 -10.6159 -22.7716 -8.68922 4.18383 0.194762 0.612243 42.2247 -22.1062 5.28524 -14.1399 0.0 0.0 0.0 0.0 0.0 
598.801 690.219 -2072.48 168.713 80.9844 -163.86 -2.15374 -0.735989 -2.81067 -2.14952 -0.555722 -2.85176 -2.1164 0.163196 -2.90078 -2.12802 -0.29678 -2.89017 15.2521 1.25639 16.7532 16.9124 -13.9354 22.2372 -0.0 0.0 -0.0 8.29852 -21.8835 15.4731 9.34493 -21.632 70.2774 0.713945 -19.477 0.122532 -4.98206 -0.201954 0.603778 0.125606 -1.73022 0.111402 -0.0 0.0 -0.0 8.80871 14.7647 -17.0758 3.63459 -36.7654 -51.0738 6.12457 71.7255 -4.42939 36.7701 0.192014 4.6136 6.8744 -31.0983 -61.5001 0.0 0.0 0.0 20.2927 -46.689 5.11162 -18.16 0.313 2.75759 7.99538 9.24212 -1.14438 5.93177 -0.0 -0.0 -0.0 0.0 -0.0 -11.0603 -25.3848 -9.32724 2.61383 0.116429 0.384142 42.327 -22.4319 5.30381 -11.9605 0.0 0.0 0.0 0.0 0.0 
588.618 690.847 -2072.99 164.923 81.5925 -160.117 -2.0818 -0.646249 -2.63849 -2.07806 -0.477107 -2.67423 -2.05113 0.192676 -2.70959 -2.0613 -0.237512 -2.70603 14.13 1.52211 15.7739 15.4991 -12.5053 20.571 -0.0 0.0 -0.0 8.30443 -24.7824 15.2198 12.791 -18.5027 70.423 0.618078 -17.0236 0.0925032 -4.28913 -0.170728 0.520871 0.29348 -2.71467 0.823716 -0.0 0.0 -0.0 8.96333 18.2431 -17.2177 -1.03638 -39.2116 -53.778 5.87796 71.0154 -4.1957 36.5502 0.182093 4.58729 6.84515 -29.0488 -61.5556 0.0 0.0 0.0 17.203 -39.1324 2.90201 -15.1265 0.321843 2.2923 10.7184 7.14795 -1.51981 7.56064 -0.0 -0.0 -0.0 0.0 -0.0 -11.7084 -23.5989 -9.02038 2.00218 0.087612 0.294724 41.9667 -22.85 5.28389 -11.0118 0.0 0.0 0.0 0.0 0.0 
571.171 687.373 -2072.01 166.063 80.828 -160.941 -1.59054 -0.67628 -2.56961 -1.58701 -0.511455 -2.6074 -1.55977 0.120176 -2.65434 -1.56947 -0.300386 -2.64003 13.2699 1.29118 14.3257 14.3761 -11.4182 18.4298 -0.0 0.0 -0.0 7.62478 -27.0732 13.4859 10.0726 -21.1018 69.6425 0.695123 -19.0008 0.11633 -1.8261 -0.0679101 0.223291 0.452208 -4.88868 0.976206 -0.0 0.0 -0.0 9.55187 19.9487 -18.4058 -8.56678 -41.2508 -57.1699 4.35561 65.1133 -2.78168 33.1482 0.0416333 4.17578 6.7519 -31.5809 -59.7706 0.0 0.0 0.0 15.0387 -37.3491 2.0601 -13.3115 0.315354 2.01391 13.3804 6.98368 -1.87873 8.04312 -0.0 -0.0 -0.0 0.0 -0.0 -11.9346 -22.2212 -8.87673 -0.290139 -0.0118383 -0.042951 42.2385 -23.1045 5.31607 -6.71283 0.0 0.0 0.0 0.0 0.0 
563.151 688.44 -2070.18 168.734 81.9665 -163.129 -1.4517 -0.700321 -2.77315 -1.44758 -0.522511 -2.81206 -1.41753 0.150794 -2.85617 -1.42879 -0.301992 -2.84417 14.5278 3.391 13.8629 15.3574 -7.85534 18.0189 -0.0 0.0 -0.0 7.31427 -25.3948 12.9785 9.18667 -23.3932 69.6159 0.781179 -21.155 0.145879 -0.555959 -0.0199204 0.0682056 -0.184256 -7.37882 -4.37929 -0.0 0.0 -0.0 10.517 21.6104 -20.4401 -12.7095 -41.2661 -58.2013 3.02424 56.2652 -1.61728 32.6352 0.022583 4.11303 6.60129 -30.0486 -58.2403 0.0 0.0 0.0 14.4111 -35.7841 0.674124 -13.1112 0.314097 1.98321 14.5135 1.84409 -2.03885 9.32747 -0.0 -0.0 -0.0 0.0 -0.0 -9.12707 -21.4874 -7.78146 -4.89328 -0.170316 -0.731431 42.3471 -22.9804 5.32201 -6.37622 0.0 0.0 0.0 0.0 0.0 
565.853 686.604 -2062.42 168.607 82.9146 -162.565 -1.49447 -0.702916 -3.09531 -1.48928 -0.504628 -3.13371 -1.45629 0.245766 -3.16453 -1.47017 -0.256839 -3.16365 13.4801 3.27157 13.3512 14.228 -7.42856 17.119 -0.0 0.0 -0.0 7.80736 -26.5236 13.946 10.2937 -23.1597 68.6431 0.83925 -22.5744 0.167507 0.396484 0.0138011 -0.0487558 -1.16796 -8.03087 -11.3683 -0.0 0.0 -0.0 9.54999 26.7017 -17.7835 -13.5243 -42.6533 -67.3426 1.67263 39.6409 -0.602896 42.121 0.464157 5.24121 6.32019 -24.5231 -55.3323 0.0 0.0 0.0 13.9948 -33.1509 0.0339632 -11.0768 0.295258 1.67164 16.1936 0.605149 -2.2642 11.1001 -0.0 -0.0 -0.0 0.0 -0.0 -6.39805 -22.9199 -6.28094 -8.11549 -0.248093 -1.21974 42.0362 -22.4126 5.27723 3.64773 -0.0 -0.0 0.0 0.0 0.0 
558.21 684.776 -2062.48 171.709 82.4264 -165.933 -1.40386 -0.71352 -2.8518 -1.3995 -0.530685 -2.89138 -1.36814 0.158899 -2.93534 -1.38003 -0.306475 -2.92363 13.254 3.26958 11.8953 13.8143 -6.02611 15.1741 -0.0 0.0 -0.0 7.71688 -25.009 13.902 11.2686 -23.8649 68.7118 0.875599 -23.4483 0.181717 1.13422 0.0385799 -0.139721 -1.69875 -10.0788 -15.9476 -0.0 0.0 -0.0 10.859 25.0823 -20.8904 -12.5407 -47.4872 -64.0017 1.45498 35.7802 -0.469692 36.6681 0.1874 4.6014 5.85857 -20.4501 -50.0553 0.0 0.0 0.0 13.5011 -32.3393 0.160741 -9.14582 0.267152 1.37669 18.534 -0.891207 -2.57318 10.9415 -0.0 -0.0 -0.0 0.0 -0.0 -4.61462 -22.9735 -5.13185 -12.7115 -0.31127 -1.92195 42.1504 -24.1096 5.33984 13.089 -0.0 -0.0 0.0 0.0 0.0 
552.217 685.376 -2059.33 165.082 82.6833 -159.071 -1.55762 -0.703219 -3.05381 -1.55258 -0.507567 -3.09232 -1.51982 0.236639 -3.12472 -1.53335 -0.259575 -3.1229 11.8991 3.09887 11.6001 12.4212 -5.85644 14.556 -0.0 0.0 -0.0 8.06336 -26.7741 14.4832 9.99955 -23.968 67.4599 0.956569 -25.3538 0.215171 0.881295 0.030217 -0.108499 -1.74731 -10.0874 -16.2922 -0.0 0.0 -0.0 10.5926 28.1455 -19.947 -12.9129 -50.4253 -64.7443 1.05745 27.6462 -0.260195 40.1347 0.356286 5.01119 5.12033 -18.751 -42.8981 0.0 0.0 0.0 12.2223 -30.8258 -0.0421959 -9.40777 0.271548 1.41664 21.403 0.558605 -2.92145 12.0086 -0.0 -0.0 -0.0 0.0 -0.0 -4.44612 -23.6278 -4.30323 -14.6316 -0.320948 -2.21637 40.2533 -23.736 5.1523 16.6516 -0.0 -0.0 0.0 0.0 0.0 
547.127 682.942 -2056.49 168.89 82.5299 -163.085 -1.49617 -0.665892 -3.08792 -1.49098 -0.468149 -3.12399 -1.46015 0.279204 -3.14648 -1.4739 -0.220975 -3.1511 11.4776 3.35298 10.4227 11.8601 -4.29532 12.9914 -0.0 0.0 -0.0 8.00936 -26.1826 14.4267 11.1472 -24.3524 68.2089 0.942049 -25.0163 0.208993 0.904399 0.0309867 -0.11135 -1.77493 -11.4212 -17.0658 -0.0 0.0 -0.0 10.0846 27.7395 -18.8586 -10.7581 -53.4841 -63.4835 0.761551 20.6689 -0.138873 36.5146 0.180498 4.58303 5.12421 -19.6837 -43.1035 0.0 0.0 0.0 12.3118 -31.6461 0.266417 -8.5098 0.255721 1.27976 22.5954 -1.01644 -3.07628 12.3686 -0.0 -0.0 -0.0 0.0 -0.0 -2.2693 -23.6758 -2.72956 -18.5388 -0.310166 -2.81563 41.0193 -23.4272 5.21464 21.398 -0.0 -0.0 0.0 0.0 0.0 
545.689 679.508 -2053.03 164.962 82.0976 -159.033 -1.5685 -0.701821 -3.20777 -1.56291 -0.496391 -3.24587 -1.52893 0.284318 -3.27125 -1.54378 -0.235598 -3.27511 8.82956 2.58357 9.85492 9.18221 -4.70414 11.9129 -0.0 0.0 -0.0 7.59749 -28.2474 13.2969 12.3095 -24.8299 69.337 0.929764 -24.7294 0.203826 0.400372 0.0139348 -0.0492344 -1.7876 -10.6142 -16.8051 -0.0 0.0 -0.0 7.78904 28.7253 -13.6633 -12.3628 -51.8381 -69.9354 0.534903 14.8411 -0.0696672 38.5613 0.276554 4.82645 4.70309 -18.8218 -39.4004 0.0 0.0 0.0 12.1664 -31.3101 0.52654 -8.91982 0.263214 1.34223 23.915 -1.89281 -3.2407 11.5967 -0.0 -0.0 -0.0 0.0 -0.0 -1.81936 -23.9242 -1.80296 -20.2892 -0.292088 -3.0836 40.3148 -22.6888 5.12733 26.2313 -0.0 -0.0 0.0 0.0 0.0 
535.468 679.123 -2046.95 160.853 82.0535 -155.122 -1.50397 -0.645461 -3.20677 -1.49836 -0.440208 -3.24129 -1.46781 0.334444 -3.25389 -1.48254 -0.183362 -3.26588 6.75185 2.01774 8.19022 6.98891 -3.90722 9.66073 -0.0 0.0 -0.0 7.89671 -28.0775 13.9734 12.5029 -24.2198 70.153 0.890387 -23.8006 0.187643 0.155374 0.00544846 -0.0190952 -1.80107 -12.0667 -17.5284 -0.0 0.0 -0.0 8.61143 28.7603 -15.4696 -12.0272 -55.6201 -67.6738 0.444837 12.4272 -0.048432 38.2777 0.262724 4.79292 4.5776 -20.7733 -38.7571 0.0 0.0 0.0 12.795 -29.1285 1.31706 -11.8139 0.303362 1.78445 24.8344 -5.34045 -3.38526 12.6238 -0.0 -0.0 -0.0 0.0 -0.0 -1.41733 -23.7519 0.00646185 -23.0135 -0.247693 -3.49923 37.9369 -22.6373 4.89744 30.4315 -0.0 -0.0 0.0 0.0 0.0 
529.799 678.75 -2043.57 156.418 81.3327 -151.333 -1.75691 -0.677193 -3.20366 -1.75133 -0.472073 -3.24021 -1.71853 0.317446 -3.25897 -1.73329 -0.200949 -3.26822 5.00885 1.92749 7.97035 5.22615 -3.68087 9.22514 -0.0 0.0 -0.0 8.36888 -28.3518 14.9819 11.6018 -25.2562 68.8244 0.930175 -24.739 0.203998 -0.211884 -0.00751395 0.0260166 -1.66126 -11.5483 -16.3217 -0.0 0.0 -0.0 7.86272 28.7003 -13.8281 -10.8418 -57.6982 -67.6351 0.326012 9.17408 -0.0261562 38.7359 0.285151 4.84705 4.43067 -22.0294 -37.816 0.0 0.0 0.0 11.8913 -27.0116 1.89358 -11.9016 0.304229 1.79788 24.2073 -8.48235 -3.35539 13.7895 -0.0 -0.0 -0.0 0.0 -0.0 -1.83575 -23.4192 1.41653 -24.0673 -0.225226 -3.65938 36.4752 -21.5334 4.72414 31.3645 -0.0 -0.0 0.0 0.0 0.0 
